<mxfile host="app.diagrams.net" modified="2021-01-12T12:22:30.890Z" agent="5.0 (Macintosh; Intel Mac OS X 10_13_6) AppleWebKit/537.36 (KHTML, like Gecko) Chrome/87.0.4280.141 Safari/537.36" etag="Xa8x6ug51EB9EgKj2A_D" version="14.1.9" type="github">
  <diagram id="AvLZGm6VDIIbgXSXpDnQ" name="Page-1">
    <mxGraphModel dx="946" dy="581" grid="1" gridSize="10" guides="1" tooltips="1" connect="1" arrows="1" fold="1" page="1" pageScale="1" pageWidth="827" pageHeight="1169" math="0" shadow="0">
      <root>
        <mxCell id="0" />
        <mxCell id="1" parent="0" />
        <mxCell id="p5A1jsiJ2Co-8r6oIvdM-65" style="edgeStyle=none;rounded=0;orthogonalLoop=1;jettySize=auto;html=1;exitX=1;exitY=0.5;exitDx=0;exitDy=0;entryX=-0.062;entryY=0.133;entryDx=0;entryDy=0;entryPerimeter=0;" edge="1" parent="1" source="p5A1jsiJ2Co-8r6oIvdM-1" target="p5A1jsiJ2Co-8r6oIvdM-16">
          <mxGeometry relative="1" as="geometry" />
        </mxCell>
        <mxCell id="p5A1jsiJ2Co-8r6oIvdM-1" value="" style="rounded=0;whiteSpace=wrap;html=1;fillColor=#a20025;strokeColor=#6F0000;" vertex="1" parent="1">
          <mxGeometry x="60" y="40" width="20" height="30" as="geometry" />
        </mxCell>
        <mxCell id="p5A1jsiJ2Co-8r6oIvdM-66" style="edgeStyle=none;rounded=0;orthogonalLoop=1;jettySize=auto;html=1;exitX=1;exitY=0.5;exitDx=0;exitDy=0;entryX=-0.062;entryY=0.367;entryDx=0;entryDy=0;entryPerimeter=0;" edge="1" parent="1" source="p5A1jsiJ2Co-8r6oIvdM-2" target="p5A1jsiJ2Co-8r6oIvdM-16">
          <mxGeometry relative="1" as="geometry" />
        </mxCell>
        <mxCell id="p5A1jsiJ2Co-8r6oIvdM-2" value="" style="rounded=0;whiteSpace=wrap;html=1;fillColor=#a20025;strokeColor=#6F0000;" vertex="1" parent="1">
          <mxGeometry x="60" y="70" width="20" height="30" as="geometry" />
        </mxCell>
        <mxCell id="p5A1jsiJ2Co-8r6oIvdM-67" style="edgeStyle=none;rounded=0;orthogonalLoop=1;jettySize=auto;html=1;exitX=1;exitY=0.5;exitDx=0;exitDy=0;entryX=-0.062;entryY=0.608;entryDx=0;entryDy=0;entryPerimeter=0;" edge="1" parent="1" source="p5A1jsiJ2Co-8r6oIvdM-3" target="p5A1jsiJ2Co-8r6oIvdM-16">
          <mxGeometry relative="1" as="geometry" />
        </mxCell>
        <mxCell id="p5A1jsiJ2Co-8r6oIvdM-3" value="" style="rounded=0;whiteSpace=wrap;html=1;fillColor=#a20025;strokeColor=#6F0000;" vertex="1" parent="1">
          <mxGeometry x="60" y="100" width="20" height="30" as="geometry" />
        </mxCell>
        <mxCell id="p5A1jsiJ2Co-8r6oIvdM-44" value="" style="edgeStyle=orthogonalEdgeStyle;rounded=0;orthogonalLoop=1;jettySize=auto;html=1;entryX=0;entryY=0.5;entryDx=0;entryDy=0;" edge="1" parent="1" source="p5A1jsiJ2Co-8r6oIvdM-4" target="p5A1jsiJ2Co-8r6oIvdM-5">
          <mxGeometry relative="1" as="geometry" />
        </mxCell>
        <mxCell id="p5A1jsiJ2Co-8r6oIvdM-4" value="" style="rounded=0;whiteSpace=wrap;html=1;fillColor=#a20025;strokeColor=#6F0000;" vertex="1" parent="1">
          <mxGeometry x="60" y="130" width="20" height="30" as="geometry" />
        </mxCell>
        <mxCell id="p5A1jsiJ2Co-8r6oIvdM-5" value="1" style="rounded=0;whiteSpace=wrap;html=1;fillColor=#f0a30a;strokeColor=#BD7000;" vertex="1" parent="1">
          <mxGeometry x="97" y="130" width="16" height="30" as="geometry" />
        </mxCell>
        <mxCell id="p5A1jsiJ2Co-8r6oIvdM-56" value="" style="edgeStyle=orthogonalEdgeStyle;rounded=0;orthogonalLoop=1;jettySize=auto;html=1;" edge="1" parent="1" source="p5A1jsiJ2Co-8r6oIvdM-6">
          <mxGeometry relative="1" as="geometry">
            <mxPoint x="179" y="145" as="targetPoint" />
          </mxGeometry>
        </mxCell>
        <mxCell id="p5A1jsiJ2Co-8r6oIvdM-6" value="docid1" style="rounded=0;whiteSpace=wrap;html=1;fillColor=#f0a30a;strokeColor=#BD7000;" vertex="1" parent="1">
          <mxGeometry x="113" y="130" width="46" height="30" as="geometry" />
        </mxCell>
        <mxCell id="p5A1jsiJ2Co-8r6oIvdM-68" style="edgeStyle=none;rounded=0;orthogonalLoop=1;jettySize=auto;html=1;exitX=1;exitY=0.5;exitDx=0;exitDy=0;entryX=-0.074;entryY=0.108;entryDx=0;entryDy=0;entryPerimeter=0;" edge="1" parent="1" source="p5A1jsiJ2Co-8r6oIvdM-12" target="p5A1jsiJ2Co-8r6oIvdM-41">
          <mxGeometry relative="1" as="geometry" />
        </mxCell>
        <mxCell id="p5A1jsiJ2Co-8r6oIvdM-12" value="" style="rounded=0;whiteSpace=wrap;html=1;fillColor=#1ba1e2;strokeColor=#006EAF;" vertex="1" parent="1">
          <mxGeometry x="196" y="40" width="36" height="30" as="geometry" />
        </mxCell>
        <mxCell id="p5A1jsiJ2Co-8r6oIvdM-69" style="edgeStyle=none;rounded=0;orthogonalLoop=1;jettySize=auto;html=1;exitX=1;exitY=0.5;exitDx=0;exitDy=0;entryX=-0.059;entryY=0.141;entryDx=0;entryDy=0;entryPerimeter=0;" edge="1" parent="1" source="p5A1jsiJ2Co-8r6oIvdM-13" target="p5A1jsiJ2Co-8r6oIvdM-38">
          <mxGeometry relative="1" as="geometry" />
        </mxCell>
        <mxCell id="p5A1jsiJ2Co-8r6oIvdM-13" value="" style="rounded=0;whiteSpace=wrap;html=1;fillColor=#1ba1e2;strokeColor=#006EAF;" vertex="1" parent="1">
          <mxGeometry x="196" y="70" width="36" height="30" as="geometry" />
        </mxCell>
        <mxCell id="p5A1jsiJ2Co-8r6oIvdM-70" style="edgeStyle=none;rounded=0;orthogonalLoop=1;jettySize=auto;html=1;exitX=1;exitY=0.25;exitDx=0;exitDy=0;entryX=-0.059;entryY=0.413;entryDx=0;entryDy=0;entryPerimeter=0;" edge="1" parent="1" source="p5A1jsiJ2Co-8r6oIvdM-14" target="p5A1jsiJ2Co-8r6oIvdM-38">
          <mxGeometry relative="1" as="geometry" />
        </mxCell>
        <mxCell id="p5A1jsiJ2Co-8r6oIvdM-14" value="" style="rounded=0;whiteSpace=wrap;html=1;fillColor=#1ba1e2;strokeColor=#006EAF;" vertex="1" parent="1">
          <mxGeometry x="196" y="100" width="36" height="30" as="geometry" />
        </mxCell>
        <mxCell id="p5A1jsiJ2Co-8r6oIvdM-46" value="" style="edgeStyle=orthogonalEdgeStyle;rounded=0;orthogonalLoop=1;jettySize=auto;html=1;entryX=0;entryY=0.5;entryDx=0;entryDy=0;" edge="1" parent="1" source="p5A1jsiJ2Co-8r6oIvdM-15" target="p5A1jsiJ2Co-8r6oIvdM-22">
          <mxGeometry relative="1" as="geometry" />
        </mxCell>
        <mxCell id="p5A1jsiJ2Co-8r6oIvdM-15" value="docid2" style="rounded=0;whiteSpace=wrap;html=1;fillColor=#1ba1e2;strokeColor=#006EAF;" vertex="1" parent="1">
          <mxGeometry x="196" y="130" width="36" height="30" as="geometry" />
        </mxCell>
        <mxCell id="p5A1jsiJ2Co-8r6oIvdM-16" value="7" style="rounded=0;whiteSpace=wrap;html=1;fillColor=#1ba1e2;strokeColor=#006EAF;" vertex="1" parent="1">
          <mxGeometry x="180" y="40" width="16" height="120" as="geometry" />
        </mxCell>
        <mxCell id="p5A1jsiJ2Co-8r6oIvdM-22" value="11" style="rounded=0;whiteSpace=wrap;html=1;fillColor=#f0a30a;strokeColor=#BD7000;" vertex="1" parent="1">
          <mxGeometry x="252" y="130" width="12" height="30" as="geometry" />
        </mxCell>
        <mxCell id="p5A1jsiJ2Co-8r6oIvdM-47" value="" style="edgeStyle=orthogonalEdgeStyle;rounded=0;orthogonalLoop=1;jettySize=auto;html=1;entryX=0;entryY=0.5;entryDx=0;entryDy=0;" edge="1" parent="1" source="p5A1jsiJ2Co-8r6oIvdM-23" target="p5A1jsiJ2Co-8r6oIvdM-29">
          <mxGeometry relative="1" as="geometry">
            <mxPoint x="340" y="145" as="targetPoint" />
          </mxGeometry>
        </mxCell>
        <mxCell id="p5A1jsiJ2Co-8r6oIvdM-23" value="docid3" style="rounded=0;whiteSpace=wrap;html=1;fillColor=#f0a30a;strokeColor=#BD7000;" vertex="1" parent="1">
          <mxGeometry x="264" y="130" width="42" height="30" as="geometry" />
        </mxCell>
        <mxCell id="p5A1jsiJ2Co-8r6oIvdM-29" value="22" style="rounded=0;whiteSpace=wrap;html=1;fillColor=#f0a30a;strokeColor=#BD7000;" vertex="1" parent="1">
          <mxGeometry x="324" y="130" width="12" height="30" as="geometry" />
        </mxCell>
        <mxCell id="p5A1jsiJ2Co-8r6oIvdM-61" value="" style="edgeStyle=orthogonalEdgeStyle;rounded=0;orthogonalLoop=1;jettySize=auto;html=1;" edge="1" parent="1" source="p5A1jsiJ2Co-8r6oIvdM-30" target="p5A1jsiJ2Co-8r6oIvdM-38">
          <mxGeometry relative="1" as="geometry">
            <Array as="points">
              <mxPoint x="410" y="145" />
              <mxPoint x="410" y="145" />
            </Array>
          </mxGeometry>
        </mxCell>
        <mxCell id="p5A1jsiJ2Co-8r6oIvdM-30" value="docid4" style="rounded=0;whiteSpace=wrap;html=1;fillColor=#f0a30a;strokeColor=#BD7000;" vertex="1" parent="1">
          <mxGeometry x="336" y="130" width="42" height="30" as="geometry" />
        </mxCell>
        <mxCell id="p5A1jsiJ2Co-8r6oIvdM-74" style="edgeStyle=none;rounded=0;orthogonalLoop=1;jettySize=auto;html=1;exitX=1;exitY=0.5;exitDx=0;exitDy=0;entryX=-0.037;entryY=0.358;entryDx=0;entryDy=0;entryPerimeter=0;" edge="1" parent="1" source="p5A1jsiJ2Co-8r6oIvdM-35" target="p5A1jsiJ2Co-8r6oIvdM-41">
          <mxGeometry relative="1" as="geometry" />
        </mxCell>
        <mxCell id="p5A1jsiJ2Co-8r6oIvdM-35" value="" style="rounded=0;whiteSpace=wrap;html=1;fillColor=#a0522d;strokeColor=#6D1F00;" vertex="1" parent="1">
          <mxGeometry x="413" y="69" width="37" height="32" as="geometry" />
        </mxCell>
        <mxCell id="p5A1jsiJ2Co-8r6oIvdM-62" value="" style="edgeStyle=orthogonalEdgeStyle;rounded=0;orthogonalLoop=1;jettySize=auto;html=1;" edge="1" parent="1" source="p5A1jsiJ2Co-8r6oIvdM-36" target="p5A1jsiJ2Co-8r6oIvdM-41">
          <mxGeometry relative="1" as="geometry">
            <Array as="points">
              <mxPoint x="480" y="114" />
              <mxPoint x="480" y="114" />
            </Array>
          </mxGeometry>
        </mxCell>
        <mxCell id="p5A1jsiJ2Co-8r6oIvdM-36" value="" style="rounded=0;whiteSpace=wrap;html=1;fillColor=#a0522d;strokeColor=#6D1F00;" vertex="1" parent="1">
          <mxGeometry x="413" y="94" width="37" height="35" as="geometry" />
        </mxCell>
        <mxCell id="p5A1jsiJ2Co-8r6oIvdM-49" value="" style="edgeStyle=orthogonalEdgeStyle;rounded=0;orthogonalLoop=1;jettySize=auto;html=1;entryX=0;entryY=0.832;entryDx=0;entryDy=0;entryPerimeter=0;" edge="1" parent="1" source="p5A1jsiJ2Co-8r6oIvdM-37">
          <mxGeometry relative="1" as="geometry">
            <mxPoint x="483" y="143.51999999999998" as="targetPoint" />
          </mxGeometry>
        </mxCell>
        <mxCell id="p5A1jsiJ2Co-8r6oIvdM-37" value="docid2" style="rounded=0;whiteSpace=wrap;html=1;fillColor=#a0522d;strokeColor=#6D1F00;" vertex="1" parent="1">
          <mxGeometry x="413" y="125" width="37" height="37" as="geometry" />
        </mxCell>
        <mxCell id="p5A1jsiJ2Co-8r6oIvdM-38" value="37" style="rounded=0;whiteSpace=wrap;html=1;fillColor=#a0522d;strokeColor=#6D1F00;" vertex="1" parent="1">
          <mxGeometry x="396" y="69" width="17" height="92" as="geometry" />
        </mxCell>
        <mxCell id="p5A1jsiJ2Co-8r6oIvdM-41" value="NULL" style="rounded=0;whiteSpace=wrap;html=1;gradientColor=#b3b3b3;fillColor=#f5f5f5;strokeColor=#666666;" vertex="1" parent="1">
          <mxGeometry x="480" y="41" width="27" height="120" as="geometry" />
        </mxCell>
        <mxCell id="p5A1jsiJ2Co-8r6oIvdM-71" value="word" style="text;html=1;align=center;verticalAlign=middle;resizable=0;points=[];autosize=1;" vertex="1" parent="1">
          <mxGeometry x="50" y="10" width="40" height="20" as="geometry" />
        </mxCell>
        <mxCell id="p5A1jsiJ2Co-8r6oIvdM-72" style="edgeStyle=none;rounded=0;orthogonalLoop=1;jettySize=auto;html=1;exitX=0.5;exitY=1;exitDx=0;exitDy=0;" edge="1" parent="1" source="p5A1jsiJ2Co-8r6oIvdM-37" target="p5A1jsiJ2Co-8r6oIvdM-37">
          <mxGeometry relative="1" as="geometry" />
        </mxCell>
      </root>
    </mxGraphModel>
  </diagram>
</mxfile>
